<svg width="1537" height="1537" viewBox="0 0 1537 1537" fill="none" xmlns="http://www.w3.org/2000/svg">
<path fill-rule="evenodd" clip-rule="evenodd" d="M741.911 170.33L739.784 172.08L740.05 357.58L740.316 543.08L766.316 542.827C780.616 542.688 792.857 542.373 793.519 542.126C795.072 541.549 794.119 171.804 792.559 169.83C791.818 168.893 785.624 168.58 767.804 168.58C746.646 168.58 743.804 168.772 741.911 170.33ZM720.733 346.954C720.504 347.16 717.391 347.616 713.816 347.967C685.038 350.791 631.363 364.319 606.316 375.059C604.666 375.767 601.741 376.928 599.816 377.639C590.016 381.261 546.517 402.646 544.817 404.679C544.541 405.008 542.163 406.47 539.533 407.927C533.433 411.307 529.666 413.72 527.995 415.317C527.268 416.012 526.068 416.58 525.328 416.58C524.588 416.58 523.833 416.941 523.649 417.383C523.372 418.05 508.561 428.634 503.082 432.08C502.207 432.63 500.762 433.755 499.871 434.58C498.979 435.405 496.518 437.43 494.401 439.08C492.284 440.73 488.924 443.532 486.934 445.307C484.944 447.082 482.999 448.544 482.611 448.557C482.224 448.57 480.865 449.593 479.592 450.83C478.318 452.068 473.07 456.905 467.928 461.58C452.887 475.257 446.596 481.69 434.165 496.106C431.332 499.392 427.613 503.655 425.899 505.58C424.185 507.505 420.878 511.555 418.55 514.58C416.221 517.605 413.866 520.606 413.316 521.249C412.766 521.892 410.109 525.604 407.412 529.499C404.715 533.393 402.128 536.58 401.662 536.58C401.197 536.58 400.816 537.094 400.816 537.722C400.816 539.135 392.83 551.955 391.664 552.413C391.198 552.597 390.816 553.191 390.816 553.733C390.816 554.276 389.558 556.601 388.019 558.9C386.481 561.199 383.706 566.005 381.853 569.58C379.999 573.155 378.22 576.305 377.899 576.58C376.749 577.566 374.816 581.58 374.816 582.983C374.816 583.77 374.479 584.563 374.066 584.747C373.654 584.93 372.078 587.667 370.566 590.83C369.054 593.993 366.578 599.167 365.066 602.33C363.554 605.493 361.979 608.23 361.566 608.413C361.154 608.597 360.816 609.338 360.816 610.06C360.816 610.782 359.428 614.682 357.731 618.726C354.122 627.326 348.337 642.942 346.114 650.08C345.258 652.83 343.738 657.555 342.736 660.58C339.986 668.886 332.816 698.135 332.816 701.049C332.816 702.456 332.394 704.389 331.879 705.344C331.045 706.889 327.76 729.029 326.224 743.456L325.652 748.832L346.7 748.407C358.276 748.173 368.04 747.689 368.398 747.331C368.757 746.973 369.645 742.27 370.372 736.88C372.479 721.267 377.826 694.97 381.312 683.08C387.244 662.848 389.084 657.325 395.304 641.08C400.133 628.467 415.178 597.222 419.86 590.08C421.303 587.88 423.57 584.055 424.899 581.58C426.229 579.105 427.541 576.855 427.816 576.58C428.091 576.305 432.316 570.121 437.205 562.837C442.094 555.554 446.706 549.086 447.455 548.465C448.204 547.843 448.816 546.753 448.816 546.041C448.816 545.329 449.207 544.597 449.684 544.413C450.162 544.23 453.348 540.593 456.765 536.33C460.183 532.067 463.392 528.58 463.897 528.58C464.403 528.58 464.816 527.972 464.816 527.228C464.816 525.641 490.738 499.085 502.316 488.81C513.256 479.1 531.512 464.58 532.779 464.58C533.349 464.58 533.816 464.185 533.816 463.702C533.816 463.219 536.291 461.324 539.316 459.491C542.341 457.657 544.816 455.803 544.816 455.369C544.816 454.935 545.313 454.58 545.921 454.58C546.529 454.58 549.026 453.23 551.471 451.58C553.916 449.93 556.274 448.58 556.711 448.58C557.148 448.58 558.321 447.68 559.316 446.58C560.311 445.48 561.493 444.58 561.942 444.58C562.391 444.58 566.034 442.651 570.037 440.294C584.687 431.668 612.082 418.58 615.488 418.58C616.219 418.58 616.816 418.18 616.816 417.691C616.816 417.203 618.502 416.486 620.564 416.1C622.625 415.713 624.537 415.085 624.814 414.705C626.378 412.553 663.85 400.58 669.02 400.58C670.338 400.58 671.844 400.202 672.366 399.741C672.888 399.28 675.791 398.388 678.816 397.76C681.841 397.132 687.587 395.927 691.584 395.083C695.582 394.238 704.703 392.676 711.853 391.612C719.003 390.547 725.294 389.402 725.834 389.069C726.426 388.703 726.816 380.144 726.816 367.521V346.58H723.983C722.424 346.58 720.962 346.748 720.733 346.954ZM809.631 367.236C809.447 378.7 809.526 388.378 809.806 388.742C810.087 389.106 815.716 390.159 822.316 391.082C833.105 392.591 842.113 394.235 858.816 397.746C861.841 398.382 864.744 399.28 865.266 399.741C865.788 400.202 867.229 400.58 868.467 400.58C869.705 400.58 873.103 401.207 876.017 401.973C884.509 404.206 912.264 413.69 912.814 414.547C913.09 414.977 914.891 415.662 916.816 416.07C918.741 416.477 920.766 417.129 921.316 417.517C921.866 417.906 925.916 419.744 930.316 421.602C938.919 425.236 959.994 435.524 960.816 436.492C961.091 436.815 963.791 438.386 966.816 439.982C969.841 441.578 974.092 444.165 976.263 445.732C978.434 447.298 980.541 448.58 980.946 448.58C982.044 448.58 1003.26 462.736 1003.65 463.726C1003.83 464.196 1004.42 464.58 1004.95 464.58C1005.48 464.58 1009.43 467.393 1013.72 470.83C1018.01 474.268 1023.24 478.43 1025.35 480.08C1034.68 487.382 1072.82 524.795 1072.82 526.646C1072.82 527.022 1074.44 529.073 1076.41 531.204C1083.92 539.29 1112.82 579.579 1112.82 581.958C1112.82 582.175 1114.62 585.048 1116.82 588.342C1119.02 591.637 1120.82 594.776 1120.82 595.318C1120.82 595.86 1122.62 599.578 1124.82 603.58C1127.02 607.582 1128.82 611.432 1128.82 612.135C1128.82 612.838 1129.16 613.563 1129.58 613.747C1130.53 614.158 1135.68 625.012 1138.74 633.08C1140 636.38 1141.62 640.43 1142.34 642.08C1143.06 643.73 1144.41 647.105 1145.33 649.58C1146.25 652.055 1147.37 654.98 1147.82 656.08C1148.81 658.513 1151.61 666.974 1152.79 671.08C1153.26 672.73 1154.36 676.555 1155.24 679.58C1158.92 692.217 1164.27 717.563 1166.31 731.972C1167.18 738.081 1168.14 744.326 1168.44 745.85L1168.98 748.619L1190.15 748.35L1211.32 748.08L1211.04 743.08C1210.38 731.218 1205.1 700.18 1200.74 682.58C1193.99 655.341 1182.81 623.616 1172.72 603.08C1170.55 598.68 1168.79 594.555 1168.8 593.913C1168.81 593.272 1168.48 592.597 1168.07 592.413C1167.08 591.973 1160.78 579.413 1160.8 577.913C1160.81 577.272 1160.43 576.597 1159.96 576.413C1159.49 576.23 1157.55 573.155 1155.65 569.58C1151.54 561.837 1149.45 558.492 1137.07 539.876C1131.88 532.064 1127 525.147 1126.22 524.504C1125.45 523.861 1124.82 522.823 1124.82 522.198C1124.82 521.573 1123.92 520.499 1122.82 519.812C1121.72 519.125 1120.82 518.113 1120.82 517.563C1120.82 516.71 1118.64 513.913 1114.3 509.191C1113.73 508.58 1112.26 506.772 1111.03 505.174C1100.9 492.07 1057.93 448.661 1054.98 448.557C1054.61 448.544 1052.68 447.082 1050.67 445.307C1042.91 438.439 1029.06 428.029 1018.32 420.982C1013.37 417.736 1008.76 414.56 1008.09 413.924C1007.41 413.288 1005.5 412.165 1003.84 411.43C1002.18 410.694 1000.82 409.752 1000.82 409.336C1000.82 408.92 1000.38 408.58 999.847 408.58C999.314 408.58 995.141 406.373 990.574 403.675C980.173 397.532 952.913 383.925 942.316 379.587C937.916 377.786 933.416 375.935 932.316 375.473C930.277 374.618 927.81 373.73 912.816 368.451C891.363 360.898 852.052 351.347 832.816 349.013C829.791 348.646 826.641 348.226 825.816 348.079C824.991 347.932 821.087 347.493 817.141 347.102L809.966 346.392L809.631 367.236ZM766.726 688.861C763.276 693.674 752.816 710.735 752.816 711.549C752.816 712.024 752.466 712.563 752.039 712.747C750.687 713.327 731.816 742.792 731.816 744.323C731.816 744.897 732.487 745.624 733.307 745.938C735.782 746.888 806.002 746.794 806.956 745.84C807.925 744.871 802.917 736.348 776.397 693.83C771.558 686.073 769.487 685.009 766.726 688.861ZM709.816 760.502C702.941 764.836 693.491 770.758 688.816 773.661C670.095 785.29 666.816 787.65 666.816 789.498C666.816 790.753 670.273 793.574 677.566 798.271C711.856 820.358 718.652 824.58 719.916 824.58C720.411 824.58 720.816 824.982 720.816 825.473C720.816 826.744 723.995 827.801 724.948 826.848C725.387 826.409 725.797 809.632 725.859 789.565C725.967 754.926 725.88 753.068 724.144 752.851C723.139 752.724 716.691 756.167 709.816 760.502ZM813.769 753.33C813.346 760.11 814.106 826.254 814.612 826.721C815.836 827.851 817.407 826.94 845.897 808.58C851.445 805.005 857.416 801.18 859.167 800.08C872.188 791.897 872.919 791.312 872.62 789.315C872.424 788.007 869.298 785.407 863.816 781.989C859.141 779.075 852.631 774.978 849.349 772.885C846.067 770.792 842.917 768.9 842.349 768.68C841.781 768.46 841.091 767.987 840.816 767.629C840.541 767.27 835.028 763.738 828.564 759.779C817.658 753.098 813.886 751.454 813.769 753.33ZM241.066 762.33L170.816 762.594V789.087V815.58H351.793H532.771L532.344 789.33C532.109 774.893 531.895 762.743 531.867 762.33C531.82 761.646 423.327 761.646 241.066 762.33ZM1013.48 762.247C1012.66 763.071 1012.59 811.824 1013.41 813.961C1013.94 815.345 1034.47 815.508 1212.39 815.538L1410.78 815.57L1411.33 813.325C1411.63 812.09 1411.75 800.518 1411.6 787.609L1411.32 764.138L1408.82 762.874C1406.83 761.868 1366.26 761.606 1210.23 761.595C1102.39 761.587 1013.85 761.88 1013.48 762.247ZM760.316 767.237C754.667 768.952 751.949 771.136 747.549 777.494C745.005 781.169 744.416 783.136 744.023 789.253C743.256 801.202 747.054 808.079 757.785 814.174C763.601 817.478 773.437 817.549 779.709 814.333C791.023 808.531 796.467 797.662 793.753 786.293C791.401 776.437 785.437 769.676 776.884 767.171C770.29 765.239 766.852 765.253 760.316 767.237ZM326.824 836.31C326.838 844.031 330.165 866.569 333.654 882.58C336.597 896.08 344.118 924.356 345.757 928.08C346.241 929.18 347.688 933.23 348.972 937.08C350.256 940.93 351.647 944.23 352.062 944.413C352.477 944.597 352.816 945.808 352.816 947.104C352.816 948.401 353.216 949.709 353.705 950.012C354.194 950.314 354.902 951.787 355.278 953.286C355.654 954.784 356.771 957.826 357.76 960.045C358.748 962.264 361.738 969.03 364.403 975.08C367.068 981.13 371.852 990.771 375.033 996.505C378.213 1002.24 380.816 1007.3 380.816 1007.76C380.816 1008.21 381.153 1008.58 381.566 1008.59C382.443 1008.6 384.816 1013.42 384.816 1015.2C384.816 1015.87 385.162 1016.56 385.584 1016.75C386.686 1017.23 392.816 1027.05 392.816 1028.33C392.816 1028.93 393.175 1029.56 393.615 1029.75C394.054 1029.93 397.766 1035.03 401.865 1041.08C405.963 1047.13 409.766 1052.63 410.316 1053.3C411.54 1054.78 412.376 1055.85 416.825 1061.58C424.739 1071.77 429.819 1077.84 435.898 1084.35C438.603 1087.25 440.816 1089.79 440.816 1090C440.816 1091.18 469.723 1119.08 479.759 1127.58C482.68 1130.06 486.026 1132.99 487.193 1134.1C488.361 1135.21 490.891 1137.22 492.816 1138.57C494.741 1139.91 496.895 1141.58 497.602 1142.26C498.31 1142.95 500.222 1144.3 501.852 1145.26C503.482 1146.22 504.816 1147.36 504.816 1147.8C504.816 1148.23 505.453 1148.58 506.233 1148.58C507.012 1148.58 507.799 1148.95 507.983 1149.4C508.166 1149.85 511.241 1152.18 514.816 1154.57C518.391 1156.97 521.541 1159.2 521.816 1159.54C522.783 1160.72 548.363 1176.2 552.316 1178.01C554.516 1179.01 557.748 1180.9 559.499 1182.21C561.25 1183.51 563.033 1184.58 563.461 1184.58C563.89 1184.58 568.532 1186.66 573.778 1189.2C579.024 1191.74 586.47 1195.34 590.325 1197.2C594.18 1199.06 598.08 1200.58 598.992 1200.58C599.903 1200.58 600.799 1200.92 600.983 1201.33C601.166 1201.74 603.791 1202.93 606.816 1203.96C609.841 1205 613.666 1206.42 615.316 1207.11C616.966 1207.81 622.816 1209.79 628.316 1211.51C633.816 1213.23 639.216 1215.05 640.316 1215.56C643.638 1217.1 674.094 1224.43 686.602 1226.71C703.186 1229.72 724.186 1232.44 725.031 1231.69C725.73 1231.06 726.302 1189.73 725.621 1189.05C725.431 1188.86 720.11 1187.97 713.796 1187.07C695.961 1184.52 691.974 1183.84 682.316 1181.68C669.681 1178.85 645.992 1172.27 641.816 1170.43C639.891 1169.58 636.516 1168.34 634.316 1167.67C632.116 1167.01 628.516 1165.76 626.316 1164.91C624.116 1164.05 620.516 1162.67 618.316 1161.83C616.116 1160.99 612.104 1159.35 609.401 1158.19C602.674 1155.3 569.446 1138.56 568.817 1137.74C568.539 1137.38 566.287 1136 563.813 1134.68C561.34 1133.36 554.667 1129.2 548.984 1125.43C543.302 1121.66 538.239 1118.58 537.734 1118.58C537.229 1118.58 536.816 1118.24 536.816 1117.82C536.816 1117.4 535.016 1115.94 532.816 1114.58C530.616 1113.22 528.816 1111.79 528.816 1111.41C528.816 1111.03 528.028 1110.46 527.066 1110.16C526.104 1109.85 524.191 1108.57 522.816 1107.32C521.441 1106.06 517.616 1102.87 514.316 1100.21C506.335 1093.8 494.202 1082.81 484.892 1073.54C478.173 1066.86 474.371 1062.75 460.423 1047.08C458.465 1044.88 456.852 1042.68 456.839 1042.2C456.826 1041.71 455.997 1040.59 454.996 1039.7C452.32 1037.32 440.816 1021.96 440.816 1020.77C440.816 1020.21 440.431 1019.6 439.96 1019.41C439.157 1019.1 424.816 997.775 424.816 996.893C424.816 996.668 423.325 994.143 421.502 991.282C417.874 985.587 417.83 985.505 408.956 967.899C405.579 961.199 402.816 955.012 402.816 954.149C402.816 953.286 402.476 952.58 402.061 952.58C401.645 952.58 400.793 951.118 400.167 949.33C398.865 945.611 392.994 930.828 391.926 928.58C391.535 927.755 389.712 922.355 387.876 916.58C386.04 910.805 384.151 905.18 383.678 904.08C380.559 896.826 373.676 864.65 370.95 844.58L369.253 832.08L348.034 831.81L326.816 831.54L326.824 836.31ZM1168.5 832.33C1168.26 832.743 1167.74 836.23 1167.35 840.08C1166.96 843.93 1165.52 852.705 1164.16 859.58C1162.79 866.455 1161.32 874.105 1160.88 876.58C1159.47 884.5 1156.38 896.069 1155.59 896.413C1155.16 896.597 1154.82 897.69 1154.82 898.842C1154.82 899.995 1154.38 902.32 1153.85 904.009C1150.72 913.909 1146.61 926.357 1145.89 928.08C1145.43 929.18 1143.79 933.23 1142.26 937.08C1140.72 940.93 1138.87 944.968 1138.14 946.053C1137.41 947.137 1136.82 948.648 1136.82 949.41C1136.82 952.757 1121.87 982.119 1112.64 996.886C1103.35 1011.76 1098.48 1019.08 1097.64 1019.41C1097.19 1019.6 1096.82 1020.16 1096.82 1020.67C1096.82 1021.67 1084.4 1038.42 1082.43 1040.08C1081.78 1040.63 1080.15 1042.66 1078.8 1044.58C1075.58 1049.2 1072.14 1053.1 1061.32 1064.4C1045.28 1081.14 1035 1090.73 1021.82 1101.29C1016.04 1105.91 1010.52 1110.34 1009.56 1111.14C1008.59 1111.93 1007.46 1112.58 1007.06 1112.59C1006.65 1112.59 1004.97 1113.84 1003.32 1115.37C1001.67 1116.9 998.665 1118.93 996.646 1119.88C994.628 1120.82 992.828 1121.94 992.646 1122.37C992.235 1123.32 979.867 1131.39 973.816 1134.66C971.341 1135.99 969.091 1137.37 968.816 1137.71C968.124 1138.59 941.07 1152.3 931.316 1156.72C922.956 1160.51 910.147 1165.51 903.316 1167.64C901.116 1168.33 897.468 1169.69 895.208 1170.67C891.272 1172.38 868.053 1178.78 858.965 1180.66C856.572 1181.15 852.747 1182.07 850.465 1182.69C846.288 1183.83 844.419 1184.14 824.316 1186.99C818.266 1187.84 812.303 1188.78 811.066 1189.08C808.819 1189.62 808.816 1189.64 808.816 1211.23V1232.83L813.566 1232.31C821.833 1231.39 845.934 1227.61 856.316 1225.61C868.276 1223.3 894.704 1216.86 896.816 1215.74C897.641 1215.3 903.041 1213.46 908.816 1211.65C914.591 1209.84 920.891 1207.7 922.816 1206.9C928.001 1204.74 929.852 1204 934.816 1202.08C949.681 1196.31 969.387 1186.89 986.316 1177.44C996.109 1171.98 1015.13 1160.46 1015.82 1159.57C1016.09 1159.22 1019.24 1156.97 1022.82 1154.57C1026.39 1152.18 1029.47 1149.85 1029.65 1149.4C1029.83 1148.95 1030.39 1148.58 1030.89 1148.58C1031.71 1148.58 1034.17 1146.8 1037.18 1144.03C1037.8 1143.46 1040.57 1141.46 1043.32 1139.6C1046.07 1137.73 1048.99 1135.49 1049.82 1134.61C1050.64 1133.73 1052.62 1132.01 1054.21 1130.78C1066.77 1121.14 1097.23 1090.42 1111.32 1073.18C1113.52 1070.49 1115.77 1067.79 1116.33 1067.18C1116.89 1066.58 1118.9 1064.06 1120.81 1061.58C1122.71 1059.11 1124.53 1056.86 1124.84 1056.58C1125.16 1056.31 1126.45 1054.39 1127.7 1052.33C1128.95 1050.27 1130.39 1048.58 1130.9 1048.58C1131.4 1048.58 1131.82 1048.18 1131.82 1047.68C1131.82 1047.19 1134.67 1042.58 1138.16 1037.43C1141.65 1032.29 1145.8 1025.67 1147.38 1022.71C1148.96 1019.76 1150.84 1017.13 1151.54 1016.86C1152.24 1016.59 1152.82 1015.73 1152.82 1014.96C1152.82 1013.66 1154.66 1009.74 1155.82 1008.58C1157.85 1006.55 1175.79 969.905 1179.81 959.58C1181.63 954.905 1183.5 950.652 1183.97 950.13C1184.44 949.607 1184.82 948.172 1184.82 946.939C1184.82 945.706 1185.21 944.456 1185.69 944.16C1186.17 943.864 1186.84 942.226 1187.18 940.521C1187.52 938.816 1188.52 935.769 1189.41 933.75C1192.6 926.488 1193.29 924.314 1197.9 907.08C1204.61 881.965 1210.71 848.742 1210.78 836.83L1210.82 831.58H1189.88C1178.36 831.58 1168.74 831.917 1168.5 832.33ZM731.257 834.675C730.885 835.277 731.533 837.059 732.698 838.635C733.863 840.21 734.816 841.716 734.816 841.982C734.816 842.601 742.951 855.703 744.298 857.252C744.858 857.896 747.025 861.271 749.113 864.752C751.201 868.232 755.967 876.03 759.704 882.08C768.573 896.439 769.089 896.483 777.009 883.58C780.216 878.355 785.085 870.623 787.828 866.398C790.571 862.173 792.816 858.235 792.816 857.648C792.816 857.061 793.153 856.579 793.566 856.578C793.979 856.577 795.622 854.44 797.219 851.828C798.815 849.217 801.685 844.742 803.597 841.885C809.427 833.171 811.136 833.58 768.906 833.58C743.197 833.58 731.728 833.914 731.257 834.675ZM765.063 1025.33L740.811 1025.62L741.063 1217.35L741.316 1409.08L766.816 1409.35C789.903 1409.59 792.434 1409.45 793.566 1407.91C794.556 1406.55 794.816 1366.77 794.816 1216.97C794.816 1112.9 794.543 1027.03 794.209 1026.16C793.87 1025.28 792.657 1024.68 791.459 1024.81C790.28 1024.94 778.402 1025.17 765.063 1025.33Z" fill="black"/>
</svg>
